<svg width="72" height="31" viewBox="0 0 72 31" fill="none" xmlns="http://www.w3.org/2000/svg">
<path fill-rule="evenodd" clip-rule="evenodd" d="M56.5303 7.40596C56.5533 4.11645 59.2306 0.608887 63.2232 0.608887C66.9381 0.608887 69.9425 3.64874 69.9425 7.40596C69.9425 11.1575 66.773 14.2035 63.2232 14.2035C59.5166 14.2035 56.5303 11.1575 56.5303 7.40596ZM58.4857 7.74625C58.2341 4.35108 60.0218 1.46713 62.7856 1.26668C65.7713 1.02531 67.5829 3.33227 67.9736 7.08482C68.2476 11.0156 66.2745 13.3847 63.6482 13.5649C60.9266 13.785 58.7222 11.1419 58.4857 7.74625Z" fill="#371804"/>
<path fill-rule="evenodd" clip-rule="evenodd" d="M11.0581 23.459C11.0784 20.17 13.7604 16.6547 17.753 16.6547C21.4601 16.6547 24.4724 19.7013 24.4724 23.459C24.4724 27.2105 21.3018 30.2571 17.753 30.2571C14.0407 30.2571 11.0581 27.2105 11.0581 23.459ZM13.0083 23.7998C12.7702 20.4 14.5475 17.5238 17.3066 17.3151C20.2954 17.0789 22.1107 19.3858 22.5003 23.1384C22.7759 27.0691 20.8022 29.4377 18.1754 29.6185C15.4559 29.8329 13.2473 27.1955 13.0083 23.7998Z" fill="#371804"/>
<path fill-rule="evenodd" clip-rule="evenodd" d="M36.6609 27.1602C35.3274 29.1247 33.3121 30.271 31.7167 30.271C28.3695 30.271 25.3447 27.3016 25.3447 23.4983C25.3447 19.6965 28.4216 16.6116 32.2136 16.6116C33.5241 16.6116 34.7643 16.8705 35.9004 17.1497L35.2587 20.0813L35.0378 20.0337C35.3899 18.6777 33.8465 17.1295 31.8391 17.1295C28.895 17.1295 27.298 19.7504 27.298 22.9907C27.298 25.6726 28.6992 27.9329 30.6077 28.626C30.7957 28.6928 33.5549 29.9239 36.4786 26.982L36.6609 27.1602Z" fill="#371804"/>
<path fill-rule="evenodd" clip-rule="evenodd" d="M21.2675 6.39422C21.2675 6.95257 21.1482 6.88783 21.7905 6.94221C22.2134 6.98261 22.7588 6.92098 23.276 6.87643C24.4543 6.74539 25.6752 5.56342 25.4247 3.77701C25.1163 1.59592 23.8193 1.27013 22.9526 1.19865C22.0072 1.11889 21.4889 1.29189 21.4092 2.30086C21.3191 3.42429 21.2675 6.39422 21.2675 6.39422ZM18.3469 0.818481C19.1756 0.919482 23.9928 0.850071 24.2918 0.850071C24.5954 0.850071 27.2592 0.70764 27.2202 3.29325C27.1754 5.93791 24.1485 7.0458 24.0912 7.00436C24.4136 7.50781 28.0286 11.3453 29.2745 12.5071C30.4465 13.6005 30.8653 13.7351 31.4331 13.7947V14.0045C28.4661 14.6457 27.3686 13.1265 26.7732 12.5071C26.1091 11.8187 24.1048 9.13677 23.1911 8.14697C22.3989 7.28303 21.6103 7.44618 21.2571 7.4094C21.2232 7.85536 21.2748 10.5409 21.2675 11.2138C21.3295 12.5071 21.3946 13.7134 22.8484 13.7455V14.0045C22.7182 14.0045 20.831 13.9423 20.6643 13.9527C20.4878 13.9625 18.9918 13.9371 18.4152 14.0045L18.412 13.7351C19.1355 13.6673 19.4835 13.3037 19.4913 12.418C19.5621 11.1625 19.6054 4.54928 19.509 2.37285C19.4637 1.52911 19.1663 1.10802 18.3516 1.09766L18.3469 0.818481Z" fill="#371804"/>
<path fill-rule="evenodd" clip-rule="evenodd" d="M30.8987 6.39422C30.8987 6.95257 30.7815 6.88783 31.4247 6.94221C31.842 6.98261 32.3884 6.92098 32.9041 6.87643C34.0849 6.74539 35.3064 5.56342 35.0537 3.77701C34.7506 1.59592 33.4505 1.27013 32.5837 1.19865C31.6373 1.11889 31.1226 1.29189 31.0383 2.30086C30.9502 3.42429 30.8987 6.39422 30.8987 6.39422ZM27.9833 0.818481C28.8068 0.919482 33.6187 0.850071 33.9229 0.850071C34.224 0.850071 36.8893 0.70764 36.8487 3.29325C36.8081 5.93791 33.7791 7.0458 33.7198 7.00436C34.0448 7.50781 37.6602 11.3453 38.9109 12.5071C40.0761 13.6005 40.4954 13.7351 41.0647 13.7947V14.0045C38.0983 14.6457 36.9982 13.1265 36.407 12.5071C35.7403 11.8187 33.7354 9.13677 32.8249 8.14697C32.03 7.28303 31.2414 7.44618 30.8851 7.4094C30.8565 7.85536 30.8565 10.5311 30.8981 11.2138C30.9257 11.8627 30.9481 12.4755 31.1456 12.9437C30.5137 12.6102 29.5881 11.7177 29.1594 11.0972C29.1995 8.68719 29.2167 4.11057 29.1428 2.37285C29.0907 1.52911 28.7604 1.09766 27.9833 1.09766V0.818481V0.818481Z" fill="#371804"/>
<path fill-rule="evenodd" clip-rule="evenodd" d="M49.4393 6.39422C49.4393 6.95257 49.32 6.88783 49.9591 6.94221C50.3863 6.98261 50.9321 6.92098 51.4452 6.87643C52.6292 6.74539 53.8408 5.56342 53.5918 3.77701C53.2865 1.59592 51.989 1.27013 51.1259 1.19865C50.1711 1.11889 49.6555 1.29189 49.5763 2.30086C49.4914 3.42429 49.4393 6.39422 49.4393 6.39422ZM46.5208 0.818481C47.349 0.919482 52.1635 0.850071 52.4609 0.850071C52.7657 0.850071 55.4242 0.70764 55.3862 3.29325C55.3456 5.93791 52.3213 7.0458 52.2651 7.00436C52.5797 7.50781 56.204 11.3453 57.438 12.5071C58.6115 13.6005 59.0381 13.7351 59.5996 13.7947V14.0045C56.6384 14.6457 55.5409 13.1265 54.9419 12.5071C54.2767 11.8187 52.276 9.13677 51.3645 8.14697C50.5644 7.28303 49.782 7.44618 49.4284 7.4094C49.3961 7.85536 49.4513 10.5409 49.4393 11.2138C49.4976 12.5071 49.5664 13.7134 51.0191 13.7455V14.0045C50.8894 14.0045 49.0023 13.9423 48.8293 13.9527C48.6569 13.9625 47.1589 13.9371 46.5869 14.0045L46.577 13.7351C47.3052 13.6673 47.6506 13.3037 47.6584 12.418C47.7318 11.1625 47.7725 4.54928 47.6792 2.37285C47.6355 1.52911 47.3386 1.10802 46.526 1.09766L46.5208 0.818481Z" fill="#371804"/>
<path fill-rule="evenodd" clip-rule="evenodd" d="M61.3843 22.5184C61.3843 23.0767 61.2697 23.012 61.9125 23.0664C62.3365 23.1068 62.8798 23.0446 63.3986 23.0016C64.5768 22.869 65.791 21.6876 65.5441 19.9007C65.2368 17.7216 63.9393 17.3943 63.0756 17.3228C62.1256 17.243 61.613 17.416 61.5291 18.4297C61.4422 19.5484 61.3843 22.5184 61.3843 22.5184ZM58.471 16.9426C59.294 17.0457 64.1138 16.9737 64.4091 16.9737C64.718 16.9737 67.3828 16.8313 67.3391 19.4174C67.2984 22.0621 64.2711 23.17 64.2127 23.128C64.5346 23.632 68.1542 27.4731 69.3908 28.6307C70.5612 29.7267 70.9858 29.8593 71.5499 29.9163V30.1286C68.5908 30.7693 67.4891 29.2548 66.8921 28.6307C66.227 27.9372 64.2284 25.2609 63.3137 24.2732C62.5162 23.4072 61.7344 23.5703 61.3739 23.533C61.3484 23.9795 61.3963 26.6661 61.3843 27.3379C61.4474 28.6307 61.5135 29.8391 62.9689 29.8691V30.1286C62.8413 30.1286 60.9577 30.0665 60.7874 30.0789C60.6098 30.0867 59.1086 30.0613 58.5325 30.1286V29.8593C59.2565 29.7925 59.604 29.4278 59.6118 28.5458C59.6878 27.2861 59.7264 20.6734 59.6321 18.497C59.5831 17.6533 59.2893 17.2332 58.4762 17.2218L58.471 16.9426Z" fill="#371804"/>
<path fill-rule="evenodd" clip-rule="evenodd" d="M3.97284 22.4355C3.97284 23.0017 3.85096 22.9302 4.49373 22.9918C4.91356 23.025 5.45684 22.9706 5.97772 22.9198C7.15335 22.7878 8.37534 21.6058 8.12011 19.8189C7.81643 17.6404 6.5184 17.3192 5.65529 17.241C4.70364 17.1618 4.18901 17.3342 4.10723 18.3479C4.01972 19.4672 3.97284 22.4355 3.97284 22.4355ZM1.05225 16.8608C1.87628 16.9639 6.69028 16.8924 6.99761 16.8924C7.29607 16.8924 9.95622 16.7495 9.91715 19.3408C9.88121 21.986 6.85384 23.0882 6.78873 23.0467C7.11637 23.5502 10.7308 27.3897 11.9804 28.5541C13.1471 29.6449 13.5711 29.7775 14.1337 29.8391V30.0468C11.1709 30.6906 10.0677 29.173 9.47596 28.5541C8.80976 27.8631 6.80436 25.1791 5.89385 24.1914C5.09951 23.3306 4.31037 23.4885 3.95982 23.4544C3.92648 23.8977 3.98013 26.5916 3.97284 27.2613C4.02701 28.5541 4.09472 29.7557 5.55372 29.7879V30.0468C5.4235 30.0468 3.53321 29.9873 3.36444 29.9971C3.19255 30.0049 1.68981 29.9811 1.11684 30.0468L1.10954 29.7775C1.83409 29.7107 2.1836 29.346 2.19142 28.4629C2.26642 27.2043 2.30549 20.5916 2.21277 18.4152C2.15912 17.5746 1.87107 17.1499 1.05433 17.14L1.05225 16.8608Z" fill="#371804"/>
<path fill-rule="evenodd" clip-rule="evenodd" d="M0.694486 0.965148C3.38172 1.06822 7.49826 1.18994 9.29218 0.817017C9.19113 1.50796 8.99267 2.62001 8.951 3.36171L8.70983 3.36637C8.69942 1.65817 7.40658 1.60638 5.18554 1.41007C3.91406 1.29561 3.88594 2.1207 3.86406 2.55267C3.82552 3.11413 3.8052 6.30004 3.79426 6.71441C5.0574 6.69213 8.7463 6.82525 9.94485 6.1343L10.012 6.33164C8.92548 7.15622 6.80965 7.81712 3.8052 7.76585C3.76665 8.28846 3.83645 11.7634 3.90313 12.4051C4.0646 13.713 5.10428 13.713 5.51369 13.7316V14.003C4.29587 13.9849 2.55352 13.9486 0.838251 14.0082V13.744C1.29194 13.6746 2.00503 13.713 2.0691 12.4202C2.18995 11.1797 2.18994 4.48929 2.0915 2.45219C2.03681 1.57012 1.51071 1.29043 0.69397 1.23967V0.965148H0.694486Z" fill="#371804"/>
<path fill-rule="evenodd" clip-rule="evenodd" d="M13.5906 13.8716C13.0921 13.8618 11.2789 13.9747 9.56522 14.0146V13.7302C10.2851 13.6774 10.7846 13.5924 10.7846 12.5068C10.8549 11.2549 10.9065 4.47753 10.844 2.38035C10.806 1.53402 10.4861 1.144 9.8043 1.12898V0.860166C12.3374 1.01555 15.484 1.04559 17.3201 0.727051C17.2316 1.37604 17.0597 2.53832 16.9956 3.24636C16.9998 3.26138 16.7247 3.23135 16.7247 3.24119C16.8388 1.42836 15.1433 1.46979 13.9 1.34393C12.6103 1.21081 12.6551 2.13173 12.6327 2.56319C12.5889 3.12516 12.5374 5.95111 12.529 6.36236C14.2381 6.46336 16.6076 6.30072 17.4837 5.73874L17.5931 5.9195C16.5034 6.74512 14.8485 7.30295 12.5087 7.42415C12.479 7.87011 12.491 10.5505 12.529 11.2342C12.5676 11.9065 12.3988 13.22 14.2381 13.1998C16.0664 13.1781 17.6754 13.2982 18.4843 11.5004L18.7265 11.5864C18.2676 13.2516 18.2556 13.9643 16.7518 14.0042C15.5856 13.9415 14.0823 13.882 13.5906 13.8716Z" fill="#371804"/>
<path fill-rule="evenodd" clip-rule="evenodd" d="M38.7072 11.2757C38.753 8.86566 38.7759 4.07099 38.7327 2.37314C38.6868 1.51904 38.3717 1.11401 37.6831 1.11401V0.844155C40.2198 1.00576 43.3639 1.0358 45.2005 0.717773C45.1099 1.36677 44.9442 2.52335 44.876 3.23191C44.876 3.24693 44.6093 3.22155 44.6093 3.23191C44.7208 1.41856 43.0185 1.46052 41.7819 1.33362C40.4917 1.20103 40.5302 2.12194 40.5105 2.54821C40.4719 3.11537 40.4235 5.94131 40.4131 6.35256C42.1153 6.45356 44.4864 6.29093 45.3656 5.72895L45.4745 5.90971C44.3874 6.73274 42.7289 7.29368 40.3922 7.41488C40.3625 7.85514 40.3677 10.5412 40.4078 11.2244C40.4511 11.8972 40.2787 13.2102 42.1148 13.19C43.9525 13.1683 45.5552 13.2879 46.3688 11.4855L46.6095 11.5766C46.1469 13.2418 46.137 13.9525 44.6364 13.9944C43.9149 13.9525 43.0664 13.9157 42.4117 13.8929C40.9746 13.5106 39.24 11.9252 38.7072 11.2757Z" fill="#371804"/>
<path fill-rule="evenodd" clip-rule="evenodd" d="M53.4423 29.9957C52.9521 29.9859 51.1395 30.0988 49.4247 30.1387L49.4169 29.8476C50.1409 29.8015 50.6431 29.7165 50.6431 28.6304C50.7118 27.3785 50.7644 20.6037 50.7019 18.5071C50.6634 17.6587 50.3456 17.2681 49.6654 17.2531V16.9827C52.1943 17.1381 55.3388 17.1723 57.1749 16.8517C57.089 17.5007 56.9213 18.6624 56.8551 19.3705C56.8551 19.386 56.5837 19.3539 56.5837 19.3653C56.69 17.5525 55.0018 17.5939 53.759 17.468C52.4693 17.3349 52.5104 18.2553 52.4891 18.6873C52.4469 19.2482 52.3979 22.0752 52.3854 22.4865C54.0892 22.5864 56.4561 22.4248 57.3401 21.866L57.452 22.0483C56.3597 22.8692 54.7065 23.4276 52.3651 23.5483C52.337 23.9942 52.3422 26.6751 52.3854 27.3583C52.4208 28.0311 52.2557 29.3441 54.0892 29.3239C55.9248 29.3027 57.5281 29.4213 58.3375 27.6245L58.5844 27.7105C58.1276 29.3742 58.1193 30.0889 56.6134 30.1268C55.4409 30.0651 53.9371 30.0056 53.4423 29.9957Z" fill="#371804"/>
<path fill-rule="evenodd" clip-rule="evenodd" d="M45.3295 22.9282C44.0877 23.5482 42.4573 23.8585 40.0831 23.7891C40.0451 24.3148 40.1035 27.7897 40.18 28.433C40.2816 29.6958 41.0509 29.7683 41.7489 29.7807V30.0542C40.5301 30.0392 38.7903 30.0107 37.0766 30.0661V29.7957C37.7418 29.7362 38.3205 29.7362 38.4028 28.576C38.5262 27.3272 38.4309 20.441 38.3283 18.4081C38.2699 17.5239 37.7626 17.2313 36.9292 17.2313V16.9221C38.3101 17.0215 40.3795 17.0117 41.5843 16.9102V17.2012C40.2894 17.2012 40.0732 18.0253 40.0983 18.6075C40.0925 19.1974 40.0446 22.2352 40.0352 22.6491C41.0707 22.6273 43.7397 22.8459 45.3295 22.445C45.3175 22.0379 45.2284 19.3109 45.2154 18.7188C45.1998 18.0569 44.7836 17.2313 43.6001 17.2012V16.9102C44.7966 17.0117 46.8562 17.0215 48.237 16.9221V17.2209C47.4578 17.1893 47.0109 17.4825 46.9921 18.3977C46.8958 20.4307 46.9135 27.2412 47.0385 28.4822C47.1015 29.775 47.849 29.7476 48.397 29.7957V30.0661C46.6801 30.0107 44.8846 30.0392 43.6632 30.0542V29.7807C44.0741 29.8222 45.0701 29.7263 45.2274 28.4599C45.2972 27.8156 45.3722 23.4488 45.3295 22.9282Z" fill="#371804"/>
</svg>
