<svg width="34" height="34" viewBox="0 0 34 34" fill="none" xmlns="http://www.w3.org/2000/svg">
<rect width="33.3398" height="33.3398" fill="#4A1300"/>
<path d="M28.3235 24.339H25.4772C24.3917 24.339 24.0735 23.4926 22.1437 21.6056C20.4548 20.0136 19.7317 19.8071 19.3094 19.8071C18.7363 19.8071 18.5647 19.9659 18.5647 20.761V23.2567C18.5647 23.9415 18.3406 24.339 16.5316 24.339C13.5161 24.339 10.2023 22.549 7.85025 19.2471C4.32202 14.4119 3.35712 10.756 3.35712 10.0189C3.35712 9.60623 3.51976 9.23193 4.333 9.23193H7.17933C7.90677 9.23193 8.18043 9.54322 8.45327 10.3139C9.84533 14.2787 12.1925 17.7432 13.1574 17.7432C13.5193 17.7432 13.6852 17.5806 13.6852 16.6821V12.5839C13.5795 10.6969 12.5544 10.5423 12.5544 9.8714C12.5544 9.56031 12.8265 9.23193 13.2786 9.23193H17.7514C18.3546 9.23193 18.5647 9.5472 18.5647 10.2548V15.7679C18.5647 16.3577 18.8265 16.564 19.0075 16.564C19.3694 16.564 19.6711 16.3577 20.3343 15.7089C22.3848 13.4683 23.8322 10.0189 23.8322 10.0189C24.0131 9.60623 24.3466 9.23193 25.0706 9.23193H27.9169C28.7777 9.23193 28.9584 9.66527 28.7777 10.2548C28.4158 11.8763 24.9478 16.6527 24.9478 16.6527C24.6465 17.1244 24.5257 17.3601 24.9478 17.8909C25.2493 18.3039 26.2447 19.1293 26.9081 19.8957C28.1308 21.2409 29.0522 22.3753 29.3092 23.1569C29.5434 23.9415 29.1368 24.339 28.3235 24.339Z" fill="white"/>
</svg>
