<svg width="19" height="12" viewBox="0 0 19 12" fill="none" xmlns="http://www.w3.org/2000/svg">
<path d="M9.50402 7.96756L2.39585 0.326156C2.2006 0.115748 1.93954 8.68894e-07 1.66119 8.81062e-07C1.38267 8.93236e-07 1.12177 0.115748 0.926211 0.326156L0.303691 0.995737C0.107821 1.20581 -4.59554e-07 1.48663 -4.46473e-07 1.78588C-4.33392e-07 2.08514 0.107821 2.36562 0.303691 2.57586L8.76657 11.6742C8.96275 11.8852 9.22489 12.0008 9.50355 12C9.78345 12.0008 10.0453 11.8854 10.2416 11.6742L18.6963 2.58433C18.8922 2.37409 19 2.09361 19 1.79419C19 1.49493 18.8922 1.21445 18.6963 1.00404L18.0738 0.334624C17.6686 -0.100969 17.009 -0.100969 16.604 0.334625L9.50402 7.96756Z" fill="#EABA61"/>
</svg>
