<svg width="156" height="30" viewBox="0 0 156 30" fill="none" xmlns="http://www.w3.org/2000/svg">
<path fill-rule="evenodd" clip-rule="evenodd" d="M83.2889 24.4231V4.92163H95.4041V9.45143H88.3404V24.4231H83.2889Z" fill="#E00E20"/>
<path fill-rule="evenodd" clip-rule="evenodd" d="M110.647 24.4231V16.7854H103.142V24.4231H98.0898V4.92163H103.142V12.1995H110.647V4.92163H115.699V24.4231H110.647Z" fill="#E00E20"/>
<path fill-rule="evenodd" clip-rule="evenodd" d="M145.016 24.4231V9.45143H139.115V4.92163H156V9.45143H150.071V24.4231H145.016Z" fill="#E00E20"/>
<path fill-rule="evenodd" clip-rule="evenodd" d="M131.683 24.4205V13.3089L123.64 24.4205H119.416V4.92407H124.467V15.9203L132.375 4.92407H136.736V24.4205H131.683Z" fill="#E00E20"/>
<path fill-rule="evenodd" clip-rule="evenodd" d="M54.258 24.4231V12.8333L49.2135 18.9564L44.1696 12.8333V24.4231H39.1176V4.92163H44.1035L49.2135 11.6275L54.3242 4.92163H59.3095V24.4231H54.258Z" fill="#E00E20"/>
<path fill-rule="evenodd" clip-rule="evenodd" d="M68.8994 17.5641H73.5949L71.2475 11.4492L68.8994 17.5641ZM76.2284 24.4205L75.1712 21.6882H67.3168L66.2591 24.4205H61.1812L68.9505 4.92163H73.622L81.3939 24.4205H76.2284Z" fill="#E00E20"/>
<path fill-rule="evenodd" clip-rule="evenodd" d="M0.000629667 8.8838C0.00503976 6.52881 0.929272 4.27148 2.56731 2.60636C4.2066 0.941235 6.42802 0.00378008 8.74584 0H28.934V4.51593H8.75025C7.61119 4.52034 6.52063 4.98214 5.71548 5.80053C4.90969 6.61829 4.45482 7.7271 4.44915 8.88443L4.42269 16.466C4.33071 17.4375 3.92435 18.3504 3.26788 19.0629C2.61141 19.7748 1.74073 20.2455 0.793188 20.4017L0 20.5252V8.8838H0.000629667Z" fill="#E00E20"/>
<path fill-rule="evenodd" clip-rule="evenodd" d="M0.00195312 29.3448V24.8288H20.1907C21.3298 24.8225 22.4203 24.3607 23.2261 23.5423C24.0313 22.7233 24.4862 21.6151 24.4918 20.4578V13.2631C24.4975 12.2191 24.8679 11.2111 25.537 10.4198C26.2061 9.62789 27.1309 9.10371 28.1453 8.94053L28.9378 8.81958V20.4578C28.9334 22.8128 28.0104 25.0708 26.3711 26.7365C24.7325 28.4023 22.5111 29.3404 20.1932 29.3454H0.00195312V29.3448Z" fill="#E00E20"/>
<path fill-rule="evenodd" clip-rule="evenodd" d="M17.1055 20.5417V14.7034L14.472 17.8976L11.8417 14.7034V20.5417H8.35522V9.05347H11.6565L14.472 12.7472L17.2875 9.05347H20.5894V20.5417H17.1055Z" fill="#E00E20"/>
</svg>
